# xmcd CD database file
#
# Track frame offsets:
#	150
#	4773
#	25821
#	47094
#	66567
#	88890
#	108663
#	128136
#	149409
#	171507
#	192255
#	218853
#	240051
#
# Disc length: 3532 seconds
#
# Revision: 2
# Processed by: cddbd v1.5.2PL0 Copyright (c) Steve Scherf et al.
# Submitted via: CDex 1.70beta2
#
DISCID=bc0dca0d
DTITLE=BENI - Red
DYEAR=2013
DGENRE=J-Pop
TTITLE0=intro
TTITLE1=REASON
TTITLE2=さつきあめ
TTITLE3=OUR SKY
TTITLE4=FLY HIGH
TTITLE5=Concrete Rose
TTITLE6=Red
TTITLE7=ANGEL
TTITLE8=sweet danger
TTITLE9=sands of time
TTITLE10=Home Sweet Home
TTITLE11=永遠
TTITLE12=AM 2:00
EXTD=YEAR: 2013
EXTT0=
EXTT1=
EXTT2=
EXTT3=
EXTT4=
EXTT5=
EXTT6=
EXTT7=
EXTT8=
EXTT9=
EXTT10=
EXTT11=
EXTT12=
PLAYORDER=
